#N canvas 49 24 1551 851 10;
#X obj 478 782 dac~;
#X obj 585 530 osc~ 400;
#X obj 1343 742 makenote;
#X obj 903 547 keyname;
#X msg 969 611 1;
#X msg 997 635 2;
#X msg 1024 612 3;
#X msg 1078 611 5;
#X msg 1126 611 7;
#X floatatom 972 661 5 0 0 0 - - -, f 5;
#X msg 73 329 1;
#X msg 101 353 2;
#X msg 128 330 3;
#X msg 157 354 4;
#X msg 182 329 5;
#X msg 210 353 6;
#X msg 241 329 7;
#X floatatom 73 389 5 0 0 0 - - -, f 5;
#X obj 75 241 key;
#X floatatom 779 401 5 0 0 0 - - -, f 5;
#X obj 602 433 print;
#X obj 644 341 * 10, f 5;
#X obj 1029 680 * 4;
#X obj 126 408 * 7;
#X msg 1053 639 4;
#X obj 912 375 keyname;
#X msg 978 439 1;
#X msg 1006 463 2;
#X msg 1033 440 3;
#X msg 1087 439 5;
#X msg 1115 463 6;
#X msg 1135 439 7;
#X floatatom 978 489 5 0 0 0 - - -, f 5;
#X msg 1062 467 4;
#X msg 1157 465 8;
#X msg 1178 437 9;
#X msg 1205 464 10;
#X obj 1035 508 * 5;
#X floatatom 112 273 5 0 0 0 - - -, f 5;
#X msg 278 354 8;
#X msg 296 330 9;
#X msg 323 354 10;
#X msg 349 330 11;
#X obj 77 300 select 49 50 51 52 53 54 55 56 57 48 39;
#X obj 967 406 select a s d f g h j k l ñ;
#X floatatom 607 473 5 0 0 0 - - -, f 5;
#X msg 1095 643 6;
#X obj 993 533 select z x c v b n m / \, . -;
#X msg 1171 608 8;
#X msg 1196 636 9;
#X msg 1146 642 8;
#X msg 1222 605 10;
#X obj 152 861 pow;
#X obj 152 861 pow;
#X floatatom 841 225 5 0 0 0 - - -, f 5;
#X obj 687 257 *;
#X obj 870 48 key;
#X obj 870 70 select 42;
#X obj 870 93 bng 15 250 50 0 empty empty empty 17 7 0 10 -262144 -1
-1;
#X obj 870 114 tgl 15 0 empty empty empty 17 7 0 10 -262144 -1 -1 1
1;
#X obj 870 137 select 0 1;
#X obj 652 47 key;
#X obj 652 92 bng 15 250 50 0 empty empty empty 17 7 0 10 -262144 -1
-1;
#X obj 652 113 tgl 15 0 empty empty empty 17 7 0 10 -262144 -1 -1 1
1;
#X obj 652 136 select 0 1;
#X obj 652 69 select 47;
#X floatatom 708 220 5 0 0 0 - - -, f 5;
#X msg 652 159 0.75;
#X msg 713 159 1;
#X obj 643 316 *;
#X obj 488 41 key;
#X obj 488 65 select 45;
#X obj 375 35 key;
#X floatatom 428 144 5 0 0 0 - - -, f 5;
#X obj 375 60 select 43;
#X obj 472 244 *;
#X obj 692 389 ftom;
#X floatatom 702 426 5 0 0 0 - - -, f 5;
#X floatatom 544 195 5 0 0 0 - - -, f 5;
#X msg 488 112 1;
#X msg 369 103 2;
#X floatatom 580 354 5 0 0 0 - - -, f 5;
#X obj 634 775 writesf~;
#X obj 270 671 delread~ delayname 500;
#X obj 467 636 delwrite~ delayname 500;
#X obj 593 583 *~ 0.2;
#X obj 554 686 *~ 0.1;
#X msg 711 714 start;
#X msg 762 717 stop;
#X msg 658 681 open testing.wav;
#X msg 870 160 1;
#X msg 905 160 1.2;
#X connect 1 0 85 0;
#X connect 3 1 47 0;
#X connect 4 0 9 0;
#X connect 5 0 9 0;
#X connect 6 0 9 0;
#X connect 7 0 9 0;
#X connect 8 0 9 0;
#X connect 9 0 22 0;
#X connect 10 0 17 0;
#X connect 11 0 17 0;
#X connect 12 0 17 0;
#X connect 13 0 17 0;
#X connect 14 0 17 0;
#X connect 15 0 17 0;
#X connect 16 0 17 0;
#X connect 17 0 23 0;
#X connect 18 0 38 0;
#X connect 18 0 43 0;
#X connect 21 0 1 0;
#X connect 21 0 20 0;
#X connect 21 0 45 0;
#X connect 21 0 76 0;
#X connect 21 0 81 0;
#X connect 23 0 75 0;
#X connect 24 0 9 0;
#X connect 25 1 44 0;
#X connect 26 0 32 0;
#X connect 27 0 32 0;
#X connect 28 0 32 0;
#X connect 29 0 32 0;
#X connect 30 0 32 0;
#X connect 31 0 32 0;
#X connect 32 0 37 0;
#X connect 33 0 32 0;
#X connect 34 0 32 0;
#X connect 35 0 32 0;
#X connect 36 0 32 0;
#X connect 39 0 17 0;
#X connect 40 0 17 0;
#X connect 41 0 17 0;
#X connect 42 0 17 0;
#X connect 43 0 10 0;
#X connect 43 1 11 0;
#X connect 43 2 12 0;
#X connect 43 3 13 0;
#X connect 43 4 14 0;
#X connect 43 5 15 0;
#X connect 43 6 16 0;
#X connect 43 7 39 0;
#X connect 43 8 40 0;
#X connect 43 9 41 0;
#X connect 43 10 42 0;
#X connect 44 0 26 0;
#X connect 44 1 27 0;
#X connect 44 2 28 0;
#X connect 44 3 33 0;
#X connect 44 4 29 0;
#X connect 44 5 30 0;
#X connect 44 6 31 0;
#X connect 44 7 34 0;
#X connect 44 8 35 0;
#X connect 44 9 36 0;
#X connect 46 0 9 0;
#X connect 47 0 4 0;
#X connect 47 1 5 0;
#X connect 47 2 6 0;
#X connect 47 3 24 0;
#X connect 47 4 7 0;
#X connect 47 5 46 0;
#X connect 47 6 8 0;
#X connect 47 7 50 0;
#X connect 47 8 48 0;
#X connect 47 9 49 0;
#X connect 47 10 51 0;
#X connect 48 0 9 0;
#X connect 49 0 9 0;
#X connect 50 0 9 0;
#X connect 51 0 9 0;
#X connect 54 0 69 1;
#X connect 55 0 69 0;
#X connect 56 0 57 0;
#X connect 57 0 58 0;
#X connect 58 0 59 0;
#X connect 59 0 60 0;
#X connect 60 0 90 0;
#X connect 60 1 91 0;
#X connect 61 0 65 0;
#X connect 62 0 63 0;
#X connect 63 0 64 0;
#X connect 64 0 67 0;
#X connect 64 1 68 0;
#X connect 65 0 62 0;
#X connect 66 0 55 1;
#X connect 67 0 66 0;
#X connect 68 0 66 0;
#X connect 69 0 21 0;
#X connect 70 0 71 0;
#X connect 71 0 79 0;
#X connect 72 0 74 0;
#X connect 73 0 75 1;
#X connect 74 0 80 0;
#X connect 75 0 55 0;
#X connect 76 0 77 0;
#X connect 79 0 73 0;
#X connect 80 0 73 0;
#X connect 83 0 0 0;
#X connect 83 0 0 1;
#X connect 83 0 82 0;
#X connect 83 0 86 0;
#X connect 85 0 0 0;
#X connect 85 0 0 1;
#X connect 85 0 84 0;
#X connect 86 0 84 0;
#X connect 87 0 82 0;
#X connect 88 0 82 0;
#X connect 89 0 82 0;
#X connect 90 0 54 0;
#X connect 91 0 54 0;
