#N canvas 37 24 1563 851 10;
#X obj 478 782 dac~;
#X obj 585 530 osc~ 400;
#X obj 1343 742 makenote;
#X obj 903 547 keyname;
#X msg 969 611 1;
#X msg 997 635 2;
#X msg 1024 612 3;
#X msg 1078 611 5;
#X msg 1126 611 7;
#X floatatom 972 661 5 0 0 0 - - -, f 5;
#X msg 73 329 1;
#X msg 101 353 2;
#X msg 128 330 3;
#X msg 157 354 4;
#X msg 182 329 5;
#X msg 210 353 6;
#X msg 241 329 7;
#X floatatom 73 389 5 0 0 0 - - -, f 5;
#X obj 75 241 key;
#X floatatom 779 401 5 0 0 0 - - -, f 5;
#X obj 602 433 print;
#X obj 1029 680 * 4;
#X obj 126 408 * 7;
#X msg 1053 639 4;
#X obj 912 375 keyname;
#X msg 978 439 1;
#X msg 1006 463 2;
#X msg 1033 440 3;
#X msg 1087 439 5;
#X msg 1115 463 6;
#X msg 1135 439 7;
#X floatatom 978 489 5 0 0 0 - - -, f 5;
#X msg 1062 467 4;
#X msg 1157 465 8;
#X msg 1178 437 9;
#X msg 1205 464 10;
#X obj 1035 508 * 5;
#X floatatom 112 273 5 0 0 0 - - -, f 5;
#X msg 278 354 8;
#X msg 296 330 9;
#X msg 323 354 10;
#X msg 349 330 11;
#X obj 77 300 select 49 50 51 52 53 54 55 56 57 48 39;
#X obj 967 406 select a s d f g h j k l ñ;
#X floatatom 607 473 5 0 0 0 - - -, f 5;
#X msg 1095 643 6;
#X obj 993 533 select z x c v b n m / \, . -;
#X msg 1171 608 8;
#X msg 1196 636 9;
#X msg 1146 642 8;
#X msg 1222 605 10;
#X obj 152 861 pow;
#X obj 152 861 pow;
#X floatatom 1140 259 5 0 0 0 - - -, f 5;
#X obj 573 225 *;
#X obj 1169 82 key;
#X obj 1169 127 bng 15 250 50 0 empty empty empty 17 7 0 10 -262144
-1 -1;
#X obj 1169 149 tgl 50 0 empty empty empty 17 7 0 10 -4034 -1 -1 0
1;
#X obj 1170 205 select 0 1;
#X obj 1022 84 key;
#X obj 1022 129 bng 15 250 50 0 empty empty empty 17 7 0 10 -262144
-1 -1;
#X obj 1024 148 tgl 50 0 empty empty empty 17 7 0 10 -260097 -1 -1
0 1;
#X obj 1021 205 select 0 1;
#X obj 1022 106 select 47;
#X floatatom 1078 257 5 0 0 0 - - -, f 5;
#X obj 661 255 *;
#X obj 488 41 key;
#X obj 488 65 select 45;
#X obj 375 35 key;
#X floatatom 428 144 5 0 0 0 - - -, f 5;
#X obj 375 60 select 43;
#X obj 472 244 *;
#X obj 692 389 ftom;
#X floatatom 702 426 5 0 0 0 - - -, f 5;
#X floatatom 544 195 5 0 0 0 - - -, f 5;
#X floatatom 580 354 5 0 0 0 - - -, f 5;
#X obj 634 775 writesf~;
#X obj 270 671 delread~ delayname 500;
#X obj 467 636 delwrite~ delayname 500;
#X obj 593 583 *~ 0.2;
#X msg 711 714 start;
#X msg 762 717 stop;
#X msg 658 681 open testing.wav;
#X obj 1169 104 select 40;
#X floatatom 1245 259 5 0 0 0 - - -, f 5;
#X obj 1274 82 key;
#X obj 1274 127 bng 15 250 50 0 empty empty empty 17 7 0 10 -262144
-1 -1;
#X obj 1274 149 tgl 50 0 empty empty empty 17 7 0 10 -4034 -1 -1 0
1;
#X obj 1275 205 select 0 1;
#X obj 1274 104 select 41;
#X obj 675 207 pow;
#X obj 682 293 *;
#X msg 1022 227 0.75;
#X msg 1082 228 1;
#X msg 1171 229 0.75;
#X msg 1210 228 1, f 2;
#X obj 644 341 * 16;
#X obj 554 686 *~ 0.6;
#X msg 1276 226 1;
#X msg 1322 226 1.125;
#X obj 689 51 vradio 15 1 0 8 empty empty empty 0 -8 0 10 -262144 -1
-1 1;
#X msg 635 184 1.33333;
#X obj 635 151 bng 24 250 50 0 empty empty empty 17 7 0 10 -262144
-1 -1;
#X obj 866 202 pow;
#X obj 882 46 vradio 15 1 0 5 empty empty empty 0 -2 0 10 -262144 -1
-1 2;
#X obj 828 146 bng 24 250 50 0 empty empty empty 17 7 0 10 -262144
-1 -1;
#X msg 487 111 0.5;
#X msg 369 103 1;
#X obj 944 207 pow;
#X obj 963 45 vradio 15 1 0 5 empty empty empty 0 -2 0 10 -262144 -1
-1 1;
#X obj 909 145 bng 24 250 50 0 empty empty empty 17 7 0 10 -262144
-1 -1;
#X msg 909 178 1.125;
#X obj 764 208 pow;
#X obj 778 52 vradio 15 1 0 8 empty empty empty 0 -8 0 10 -262144 -1
-1 1;
#X obj 724 152 bng 24 250 50 0 empty empty empty 17 7 0 10 -262144
-1 -1;
#X obj 611 248 *;
#X msg 724 185 1.25;
#X msg 828 179 1.2;
#X connect 1 0 79 0;
#X connect 3 1 46 0;
#X connect 4 0 9 0;
#X connect 5 0 9 0;
#X connect 6 0 9 0;
#X connect 7 0 9 0;
#X connect 8 0 9 0;
#X connect 9 0 21 0;
#X connect 10 0 17 0;
#X connect 11 0 17 0;
#X connect 12 0 17 0;
#X connect 13 0 17 0;
#X connect 14 0 17 0;
#X connect 15 0 17 0;
#X connect 16 0 17 0;
#X connect 17 0 22 0;
#X connect 18 0 37 0;
#X connect 18 0 42 0;
#X connect 22 0 71 0;
#X connect 23 0 9 0;
#X connect 24 1 43 0;
#X connect 25 0 31 0;
#X connect 26 0 31 0;
#X connect 27 0 31 0;
#X connect 28 0 31 0;
#X connect 29 0 31 0;
#X connect 30 0 31 0;
#X connect 31 0 36 0;
#X connect 32 0 31 0;
#X connect 33 0 31 0;
#X connect 34 0 31 0;
#X connect 35 0 31 0;
#X connect 38 0 17 0;
#X connect 39 0 17 0;
#X connect 40 0 17 0;
#X connect 41 0 17 0;
#X connect 42 0 10 0;
#X connect 42 1 11 0;
#X connect 42 2 12 0;
#X connect 42 3 13 0;
#X connect 42 4 14 0;
#X connect 42 5 15 0;
#X connect 42 6 16 0;
#X connect 42 7 38 0;
#X connect 42 8 39 0;
#X connect 42 9 40 0;
#X connect 42 10 41 0;
#X connect 43 0 25 0;
#X connect 43 1 26 0;
#X connect 43 2 27 0;
#X connect 43 3 32 0;
#X connect 43 4 28 0;
#X connect 43 5 29 0;
#X connect 43 6 30 0;
#X connect 43 7 33 0;
#X connect 43 8 34 0;
#X connect 43 9 35 0;
#X connect 45 0 9 0;
#X connect 46 0 4 0;
#X connect 46 1 5 0;
#X connect 46 2 6 0;
#X connect 46 3 23 0;
#X connect 46 4 7 0;
#X connect 46 5 45 0;
#X connect 46 6 8 0;
#X connect 46 7 49 0;
#X connect 46 8 47 0;
#X connect 46 9 48 0;
#X connect 46 10 50 0;
#X connect 47 0 9 0;
#X connect 48 0 9 0;
#X connect 49 0 9 0;
#X connect 50 0 9 0;
#X connect 54 0 115 0;
#X connect 55 0 83 0;
#X connect 56 0 57 0;
#X connect 57 0 58 0;
#X connect 58 0 94 0;
#X connect 58 1 95 0;
#X connect 59 0 63 0;
#X connect 60 0 61 0;
#X connect 61 0 62 0;
#X connect 62 0 92 0;
#X connect 62 1 93 0;
#X connect 63 0 60 0;
#X connect 65 0 91 0;
#X connect 66 0 67 0;
#X connect 67 0 106 0;
#X connect 68 0 70 0;
#X connect 69 0 71 1;
#X connect 70 0 107 0;
#X connect 71 0 54 0;
#X connect 72 0 73 0;
#X connect 77 0 0 0;
#X connect 77 0 0 1;
#X connect 77 0 76 0;
#X connect 77 0 97 0;
#X connect 79 0 0 0;
#X connect 79 0 0 1;
#X connect 79 0 78 0;
#X connect 80 0 76 0;
#X connect 81 0 76 0;
#X connect 82 0 76 0;
#X connect 83 0 56 0;
#X connect 85 0 89 0;
#X connect 86 0 87 0;
#X connect 87 0 88 0;
#X connect 88 0 98 0;
#X connect 88 1 99 0;
#X connect 89 0 86 0;
#X connect 90 0 54 1;
#X connect 91 0 96 0;
#X connect 92 0 64 0;
#X connect 93 0 64 0;
#X connect 94 0 53 0;
#X connect 95 0 53 0;
#X connect 96 0 1 0;
#X connect 96 0 20 0;
#X connect 96 0 44 0;
#X connect 96 0 72 0;
#X connect 96 0 75 0;
#X connect 97 0 78 0;
#X connect 98 0 84 0;
#X connect 99 0 84 0;
#X connect 100 0 90 1;
#X connect 100 0 102 0;
#X connect 101 0 90 0;
#X connect 102 0 101 0;
#X connect 103 0 65 1;
#X connect 104 0 103 1;
#X connect 104 0 105 0;
#X connect 105 0 117 0;
#X connect 106 0 69 0;
#X connect 107 0 69 0;
#X connect 108 0 91 1;
#X connect 109 0 108 1;
#X connect 109 0 110 0;
#X connect 110 0 111 0;
#X connect 111 0 108 0;
#X connect 112 0 115 1;
#X connect 113 0 112 1;
#X connect 113 0 114 0;
#X connect 114 0 116 0;
#X connect 115 0 65 0;
#X connect 116 0 112 0;
#X connect 117 0 103 0;
