#N canvas 85 54 1600 846 16;
#X obj 445 279 dac~;
#X obj 585 530 osc~ 400;
#X obj 1343 742 makenote;
#X obj 43 536 keyname;
#X msg 109 600 1;
#X msg 137 624 2;
#X msg 164 601 3;
#X msg 218 600 5;
#X msg 266 600 7;
#X floatatom 112 650 5 0 0 0 - - -, f 5;
#X msg 114 85 1;
#X msg 142 109 2;
#X msg 169 86 3;
#X msg 198 110 4;
#X msg 223 85 5;
#X msg 251 109 6;
#X msg 282 85 7;
#X floatatom 114 145 5 0 0 0 - - -, f 5;
#X obj 116 -3 key;
#X floatatom 582 343 5 0 0 0 - - -, f 5;
#X obj 775 503 print;
#X obj 588 400 * 10, f 5;
#X obj 521 184 *~ 0.5;
#X obj 997 533 keyname;
#X msg 1063 597 1;
#X msg 1091 621 2;
#X msg 1118 598 3;
#X msg 1147 622 4;
#X msg 1172 597 5;
#X msg 1200 621 6;
#X msg 1231 597 7;
#X floatatom 1063 647 5 0 0 0 - - -, f 5;
#X obj 1000 364 keyname;
#X msg 1066 424 1;
#X msg 1094 448 2;
#X msg 1121 425 3;
#X msg 1151 449 4;
#X msg 1176 424 5;
#X msg 1204 448 6;
#X msg 1235 424 7;
#X floatatom 1066 484 5 0 0 0 - - -, f 5;
#X obj 169 669 * 4;
#X obj 167 164 * 7;
#X obj 1120 666 * 8;
#X obj 1123 504 * 9, f 5;
#X msg 193 628 4;
#X obj 52 364 keyname;
#X msg 118 428 1;
#X msg 146 452 2;
#X msg 173 429 3;
#X msg 227 428 5;
#X msg 255 452 6;
#X msg 275 428 7;
#X floatatom 118 478 5 0 0 0 - - -, f 5;
#X msg 202 456 4;
#X msg 297 454 8;
#X msg 318 426 9;
#X msg 345 453 10;
#X obj 175 497 * 5;
#X obj 39 168 keyname;
#X msg 105 232 1;
#X msg 133 256 2;
#X msg 160 233 3;
#X msg 214 232 5;
#X msg 242 256 6;
#X msg 262 232 7;
#X floatatom 105 282 5 0 0 0 - - -, f 5;
#X msg 189 260 4;
#X msg 287 256 8;
#X msg 310 232 9;
#X msg 332 257 10;
#X msg 351 232 11;
#X obj 162 301 * 6;
#X floatatom 153 29 5 0 0 0 - - -, f 5;
#X msg 319 110 8;
#X msg 337 86 9;
#X msg 364 110 10;
#X msg 390 86 11;
#X obj 107 204 select q w e r t y u i o p +;
#X obj 118 56 select 49 50 51 52 53 54 55 56 57 48 39;
#X obj 730 31 keyname;
#X msg 796 95 1;
#X msg 824 119 2;
#X msg 851 96 3;
#X msg 905 95 5;
#X msg 933 119 6;
#X msg 953 95 7;
#X floatatom 796 145 5 0 0 0 - - -, f 5;
#X msg 880 123 4;
#X msg 973 120 8;
#X msg 994 95 9;
#X msg 1016 120 10;
#X obj 650 625 select a b;
#X obj 107 395 select a s d f g h j k l ñ;
#X floatatom 607 473 5 0 0 0 - - -, f 5;
#X msg 235 632 6;
#X obj 133 522 select z x c v b n m / \, . -;
#X msg 311 597 8;
#X msg 336 625 9;
#X msg 286 631 8;
#X msg 362 594 10;
#X obj 434 133 delwrite~ delayname 100;
#X obj 438 238 delread~ delayname 100;
#X obj 795 67 select Q W E R T Y U I O P +;
#X msg 1035 93 11;
#X obj 855 165 * 10;
#X msg 1265 448 8;
#X msg 1279 420 9;
#X msg 1308 448 10;
#X msg 1316 423 11;
#X obj 1066 396 select A S D F G H J K L Ñ -;
#X obj 593 583 *~ 0.1;
#X obj 1063 569 select Z X C V B N M;
#X connect 1 0 111 0;
#X connect 3 1 96 0;
#X connect 4 0 9 0;
#X connect 5 0 9 0;
#X connect 6 0 9 0;
#X connect 7 0 9 0;
#X connect 8 0 9 0;
#X connect 9 0 41 0;
#X connect 10 0 17 0;
#X connect 11 0 17 0;
#X connect 12 0 17 0;
#X connect 13 0 17 0;
#X connect 14 0 17 0;
#X connect 15 0 17 0;
#X connect 16 0 17 0;
#X connect 17 0 42 0;
#X connect 18 0 73 0;
#X connect 18 0 79 0;
#X connect 19 0 21 0;
#X connect 21 0 1 0;
#X connect 21 0 20 0;
#X connect 22 0 101 0;
#X connect 23 1 112 0;
#X connect 24 0 31 0;
#X connect 25 0 31 0;
#X connect 26 0 31 0;
#X connect 27 0 31 0;
#X connect 28 0 31 0;
#X connect 29 0 31 0;
#X connect 30 0 31 0;
#X connect 31 0 43 0;
#X connect 32 1 110 0;
#X connect 33 0 40 0;
#X connect 34 0 40 0;
#X connect 35 0 40 0;
#X connect 36 0 40 0;
#X connect 37 0 40 0;
#X connect 38 0 40 0;
#X connect 39 0 40 0;
#X connect 40 0 44 0;
#X connect 41 0 19 0;
#X connect 42 0 19 0;
#X connect 43 0 19 0;
#X connect 44 0 19 0;
#X connect 45 0 9 0;
#X connect 46 1 93 0;
#X connect 47 0 53 0;
#X connect 48 0 53 0;
#X connect 49 0 53 0;
#X connect 50 0 53 0;
#X connect 51 0 53 0;
#X connect 52 0 53 0;
#X connect 53 0 58 0;
#X connect 54 0 53 0;
#X connect 55 0 53 0;
#X connect 56 0 53 0;
#X connect 57 0 53 0;
#X connect 58 0 19 0;
#X connect 59 1 78 0;
#X connect 60 0 66 0;
#X connect 61 0 66 0;
#X connect 62 0 66 0;
#X connect 63 0 66 0;
#X connect 64 0 66 0;
#X connect 65 0 66 0;
#X connect 66 0 72 0;
#X connect 67 0 66 0;
#X connect 68 0 66 0;
#X connect 69 0 66 0;
#X connect 70 0 66 0;
#X connect 71 0 66 0;
#X connect 72 0 19 0;
#X connect 74 0 17 0;
#X connect 75 0 17 0;
#X connect 76 0 17 0;
#X connect 77 0 17 0;
#X connect 78 0 60 0;
#X connect 78 1 61 0;
#X connect 78 2 62 0;
#X connect 78 3 67 0;
#X connect 78 4 63 0;
#X connect 78 5 64 0;
#X connect 78 6 65 0;
#X connect 78 7 68 0;
#X connect 78 8 69 0;
#X connect 78 9 70 0;
#X connect 78 10 71 0;
#X connect 79 0 10 0;
#X connect 79 1 11 0;
#X connect 79 2 12 0;
#X connect 79 3 13 0;
#X connect 79 4 14 0;
#X connect 79 5 15 0;
#X connect 79 6 16 0;
#X connect 79 7 74 0;
#X connect 79 8 75 0;
#X connect 79 9 76 0;
#X connect 79 10 77 0;
#X connect 80 1 103 0;
#X connect 81 0 87 0;
#X connect 82 0 87 0;
#X connect 83 0 87 0;
#X connect 84 0 87 0;
#X connect 85 0 87 0;
#X connect 86 0 87 0;
#X connect 87 0 105 0;
#X connect 88 0 87 0;
#X connect 89 0 87 0;
#X connect 90 0 87 0;
#X connect 91 0 87 0;
#X connect 93 0 47 0;
#X connect 93 1 48 0;
#X connect 93 2 49 0;
#X connect 93 3 54 0;
#X connect 93 4 50 0;
#X connect 93 5 51 0;
#X connect 93 6 52 0;
#X connect 93 7 55 0;
#X connect 93 8 56 0;
#X connect 93 9 57 0;
#X connect 95 0 9 0;
#X connect 96 0 4 0;
#X connect 96 1 5 0;
#X connect 96 2 6 0;
#X connect 96 3 45 0;
#X connect 96 4 7 0;
#X connect 96 5 95 0;
#X connect 96 6 8 0;
#X connect 96 7 99 0;
#X connect 96 8 97 0;
#X connect 96 9 98 0;
#X connect 96 10 100 0;
#X connect 97 0 9 0;
#X connect 98 0 9 0;
#X connect 99 0 9 0;
#X connect 100 0 9 0;
#X connect 102 0 0 0;
#X connect 102 0 0 1;
#X connect 102 0 22 0;
#X connect 103 0 81 0;
#X connect 103 1 82 0;
#X connect 103 2 83 0;
#X connect 103 3 88 0;
#X connect 103 4 84 0;
#X connect 103 5 85 0;
#X connect 103 6 86 0;
#X connect 103 7 89 0;
#X connect 103 8 90 0;
#X connect 103 9 91 0;
#X connect 103 10 104 0;
#X connect 105 0 19 0;
#X connect 106 0 40 0;
#X connect 107 0 40 0;
#X connect 108 0 40 0;
#X connect 109 0 40 0;
#X connect 110 0 33 0;
#X connect 110 1 34 0;
#X connect 110 2 35 0;
#X connect 110 3 36 0;
#X connect 110 4 37 0;
#X connect 110 5 38 0;
#X connect 110 6 39 0;
#X connect 110 7 106 0;
#X connect 110 8 107 0;
#X connect 110 9 108 0;
#X connect 110 10 109 0;
#X connect 111 0 0 0;
#X connect 111 0 0 1;
#X connect 111 0 101 0;
#X connect 112 0 24 0;
#X connect 112 1 25 0;
#X connect 112 2 26 0;
#X connect 112 3 27 0;
#X connect 112 4 28 0;
#X connect 112 5 29 0;
#X connect 112 6 30 0;
