#N canvas 37 89 1563 819 12;
#X obj 558 913 dac~;
#X obj 729 608 osc~ 400;
#X obj 1567 866 makenote;
#X floatatom 909 468 5 0 0 0 - - -, f 5;
#X obj 703 505 print;
#X floatatom 708 552 5 0 0 0 - - -, f 5;
#X obj 178 1005 pow;
#X obj 178 1005 pow;
#X floatatom 1330 302 5 0 0 0 - - -, f 5;
#X obj 669 263 *;
#X obj 1364 96 key;
#X obj 1364 148 bng 15 250 50 0 empty empty empty 17 7 0 10 -262144
-1 -1;
#X obj 1364 174 tgl 50 0 empty empty empty 17 7 0 10 -4034 -1 -1 0
1;
#X obj 1365 239 select 0 1;
#X obj 1193 98 key;
#X obj 1193 151 bng 15 250 50 0 empty empty empty 17 7 0 10 -262144
-1 -1;
#X obj 1195 173 tgl 50 0 empty empty empty 17 7 0 10 -260097 -1 -1
0 1;
#X obj 1191 239 select 0 1;
#X obj 1193 124 select 47;
#X floatatom 1258 300 5 0 0 0 - - -, f 5;
#X obj 771 298 *;
#X obj 1228 700 key;
#X obj 1228 728 select 45;
#X obj 1096 693 key;
#X floatatom 1159 766 5 0 0 0 - - -, f 5;
#X obj 1096 722 select 43;
#X obj 808 454 ftom;
#X floatatom 819 497 5 0 0 0 - - -, f 5;
#X floatatom 635 228 5 0 0 0 - - -, f 5;
#X floatatom 677 413 5 0 0 0 - - -, f 5;
#X msg 883 873 stop;
#X obj 1364 122 select 40;
#X floatatom 1453 302 5 0 0 0 - - -, f 5;
#X obj 1487 96 key;
#X obj 1487 148 bng 15 250 50 0 empty empty empty 17 7 0 10 -262144
-1 -1;
#X obj 1487 174 tgl 50 0 empty empty empty 17 7 0 10 -4034 -1 -1 0
1;
#X obj 1488 239 select 0 1;
#X obj 1487 122 select 41;
#X obj 788 242 pow;
#X obj 796 342 *;
#X msg 1193 265 0.75;
#X msg 1263 266 1;
#X msg 1366 267 0.75;
#X msg 1412 266 1, f 2;
#X msg 1489 264 1;
#X msg 1543 264 1.125;
#X obj 804 60 vradio 15 1 0 8 empty empty empty 0 -8 0 10 -262144 -1
-1 1;
#X msg 741 215 1.33333;
#X obj 741 176 bng 24 250 50 0 empty empty empty 17 7 0 10 -262144
-1 -1;
#X obj 1011 236 pow;
#X obj 1029 54 vradio 15 1 0 5 empty empty empty 0 -2 0 10 -262144
-1 -1 1;
#X obj 966 171 bng 24 250 50 0 empty empty empty 17 7 0 10 -262144
-1 -1;
#X msg 1226 782 0.5;
#X msg 1089 772 1;
#X obj 1102 242 pow;
#X obj 1124 53 vradio 15 1 0 5 empty empty empty 0 -2 0 10 -262144
-1 -1 1;
#X obj 1061 169 bng 24 250 50 0 empty empty empty 17 7 0 10 -262144
-1 -1;
#X msg 1061 208 1.125;
#X obj 892 243 pow;
#X obj 908 61 vradio 15 1 0 8 empty empty empty 0 -8 0 10 -262144 -1
-1 1;
#X obj 845 178 bng 24 250 50 0 empty empty empty 17 7 0 10 -262144
-1 -1;
#X obj 713 290 *;
#X msg 845 216 1.25;
#X msg 966 209 1.2;
#N canvas 37 50 1563 851 rom_to_ratio 0;
#X obj 90 54 inlet;
#X msg 34 653 1;
#X msg 155 656 9;
#X obj 155 677 / 8;
#X obj 155 697 bng 42 250 50 0 empty empty empty 17 7 0 10 -262144
-1 -1;
#X obj 34 699 bng 42 250 50 0 empty empty empty 17 7 0 10 -262144 -1
-1;
#X obj 262 697 bng 42 250 50 0 empty empty empty 17 7 0 10 -262144
-1 -1;
#X msg 262 656 6;
#X obj 262 677 / 5;
#X obj 374 696 bng 42 250 50 0 empty empty empty 17 7 0 10 -262144
-1 -1;
#X msg 374 654 5;
#X obj 374 676 / 4;
#X obj 486 696 bng 42 250 50 0 empty empty empty 17 7 0 10 -262144
-1 -1;
#X msg 486 657 4;
#X obj 486 675 / 3;
#X obj 596 696 bng 42 250 50 0 empty empty empty 17 7 0 10 -262144
-1 -1;
#X msg 596 656 3;
#X obj 596 675 / 2;
#X obj 708 696 bng 42 250 50 0 empty empty empty 17 7 0 10 -262144
-1 -1;
#X obj 820 696 bng 42 250 50 0 empty empty empty 17 7 0 10 -262144
-1 -1;
#X msg 820 651 5;
#X obj 820 675 / 3;
#X msg 708 652 8;
#X obj 708 674 / 5;
#X obj 932 693 bng 42 250 50 0 empty empty empty 17 7 0 10 -262144
-1 -1;
#X msg 932 648 16;
#X obj 932 671 / 9;
#X obj 1156 689 bng 42 250 50 0 empty empty empty 17 7 0 10 -262144
-1 -1;
#X obj 38 584 select I II IIIm III IV V VIm VI VIIm VIIb VII VIII,
f 192;
#X obj 1042 690 bng 42 250 50 0 empty empty empty 17 7 0 10 -262144
-1 -1;
#X msg 1043 647 7;
#X obj 1043 668 / 4;
#X msg 1157 645 15;
#X obj 1157 667 / 8;
#X obj 1266 689 bng 42 250 50 0 empty empty empty 17 7 0 10 -262144
-1 -1;
#X msg 1267 644 2;
#X obj 1267 664 / 1;
#X obj 85 120 select 1 2 3 4 5 6 7 8 9 10 11 12, f 142;
#X msg 85 174 I;
#X msg 333 177 III;
#X msg 251 175 IIIm;
#X msg 416 176 IV;
#X msg 498 175 V;
#X msg 578 179 VIm;
#X msg 664 181 VI;
#X msg 746 178 VIIm;
#X msg 828 178 VIIb;
#X msg 908 175 VII;
#X msg 995 175 VIII;
#X obj 85 232 symbol;
#X obj 111 268 prepend set;
#X msg 138 305 I;
#X obj 101 345 outlet;
#X obj 32 674 / 1, f 6;
#X obj 32 769 outlet;
#X msg 168 173 II;
#X connect 0 0 37 0;
#X connect 1 0 5 0;
#X connect 1 0 53 0;
#X connect 2 0 3 0;
#X connect 3 0 4 0;
#X connect 3 0 54 0;
#X connect 7 0 8 0;
#X connect 8 0 6 0;
#X connect 8 0 54 0;
#X connect 10 0 11 0;
#X connect 11 0 9 0;
#X connect 11 0 54 0;
#X connect 13 0 14 0;
#X connect 14 0 12 0;
#X connect 14 0 54 0;
#X connect 16 0 17 0;
#X connect 17 0 15 0;
#X connect 17 0 54 0;
#X connect 20 0 21 0;
#X connect 21 0 19 0;
#X connect 21 0 54 0;
#X connect 22 0 23 0;
#X connect 23 0 18 0;
#X connect 23 0 54 0;
#X connect 25 0 26 0;
#X connect 26 0 24 0;
#X connect 26 0 54 0;
#X connect 28 0 1 0;
#X connect 28 1 2 0;
#X connect 28 2 7 0;
#X connect 28 3 10 0;
#X connect 28 4 13 0;
#X connect 28 5 16 0;
#X connect 28 6 22 0;
#X connect 28 7 20 0;
#X connect 28 8 25 0;
#X connect 28 9 30 0;
#X connect 28 9 31 0;
#X connect 28 9 29 0;
#X connect 28 10 32 0;
#X connect 28 11 35 0;
#X connect 30 0 31 0;
#X connect 31 0 29 0;
#X connect 31 0 54 0;
#X connect 32 0 33 0;
#X connect 33 0 27 0;
#X connect 33 0 54 0;
#X connect 35 0 36 0;
#X connect 36 0 34 0;
#X connect 36 0 54 0;
#X connect 37 0 38 0;
#X connect 37 1 55 0;
#X connect 37 2 40 0;
#X connect 37 3 39 0;
#X connect 37 4 41 0;
#X connect 37 5 42 0;
#X connect 37 6 43 0;
#X connect 37 7 44 0;
#X connect 37 8 45 0;
#X connect 37 9 46 0;
#X connect 37 10 47 0;
#X connect 37 11 48 0;
#X connect 38 0 49 0;
#X connect 39 0 49 0;
#X connect 40 0 49 0;
#X connect 41 0 49 0;
#X connect 42 0 49 0;
#X connect 43 0 49 0;
#X connect 44 0 49 0;
#X connect 45 0 49 0;
#X connect 46 0 49 0;
#X connect 47 0 49 0;
#X connect 48 0 49 0;
#X connect 49 0 50 0;
#X connect 49 0 28 0;
#X connect 49 0 52 0;
#X connect 50 0 51 0;
#X connect 53 0 54 0;
#X connect 55 0 49 0;
#X restore 187 156 pd rom_to_ratio;
#X obj 187 109 hradio 40 1 0 12 empty empty empty 0 -8 0 10 -262144
-1 -1 5;
#X text 187 92 I II IIIm III IV V VIm VI VIIm VIIb VII VIII, f 69
;
#N canvas 37 53 1563 847 keyselectors 0;
#X msg 112 117 1;
#X msg 145 145 2;
#X msg 177 118 3;
#X msg 210 146 4;
#X msg 240 117 5;
#X msg 272 145 6;
#X msg 308 117 7;
#X floatatom 112 187 5 0 0 0 - - -, f 5;
#X obj 115 14 key;
#X obj 174 209 * 7;
#X floatatom 158 52 5 0 0 0 - - -, f 5;
#X msg 352 146 8;
#X msg 373 118 9;
#X msg 404 146 10;
#X msg 434 118 11;
#X obj 117 83 select 49 50 51 52 53 54 55 56 57 48 39;
#X obj 115 507 keyname;
#X msg 192 582 1;
#X msg 224 610 2;
#X msg 256 583 3;
#X msg 319 582 5;
#X msg 375 582 7;
#X floatatom 195 640 5 0 0 0 - - -, f 5;
#X obj 262 663 * 4;
#X msg 290 615 4;
#X obj 125 307 keyname;
#X msg 202 381 1;
#X msg 235 409 2;
#X msg 266 383 3;
#X msg 329 381 5;
#X msg 362 409 6;
#X msg 385 381 7;
#X floatatom 202 440 5 0 0 0 - - -, f 5;
#X msg 300 414 4;
#X msg 411 412 8;
#X msg 436 379 9;
#X msg 467 411 10;
#X obj 269 462 * 5;
#X obj 189 343 select a s d f g h j k l ñ;
#X msg 339 619 6;
#X obj 220 491 select z x c v b n m / \, . -;
#X msg 427 579 8;
#X msg 457 611 9;
#X msg 398 618 8;
#X msg 487 575 10;
#X connect 0 0 7 0;
#X connect 1 0 7 0;
#X connect 2 0 7 0;
#X connect 3 0 7 0;
#X connect 4 0 7 0;
#X connect 5 0 7 0;
#X connect 6 0 7 0;
#X connect 7 0 9 0;
#X connect 8 0 10 0;
#X connect 8 0 15 0;
#X connect 11 0 7 0;
#X connect 12 0 7 0;
#X connect 13 0 7 0;
#X connect 14 0 7 0;
#X connect 15 0 0 0;
#X connect 15 1 1 0;
#X connect 15 2 2 0;
#X connect 15 3 3 0;
#X connect 15 4 4 0;
#X connect 15 5 5 0;
#X connect 15 6 6 0;
#X connect 15 7 11 0;
#X connect 15 8 12 0;
#X connect 15 9 13 0;
#X connect 15 10 14 0;
#X connect 16 1 40 0;
#X connect 17 0 22 0;
#X connect 18 0 22 0;
#X connect 19 0 22 0;
#X connect 20 0 22 0;
#X connect 21 0 22 0;
#X connect 22 0 23 0;
#X connect 24 0 22 0;
#X connect 25 1 38 0;
#X connect 26 0 32 0;
#X connect 27 0 32 0;
#X connect 28 0 32 0;
#X connect 29 0 32 0;
#X connect 30 0 32 0;
#X connect 31 0 32 0;
#X connect 32 0 37 0;
#X connect 33 0 32 0;
#X connect 34 0 32 0;
#X connect 35 0 32 0;
#X connect 36 0 32 0;
#X connect 38 0 26 0;
#X connect 38 1 27 0;
#X connect 38 2 28 0;
#X connect 38 3 33 0;
#X connect 38 4 29 0;
#X connect 38 5 30 0;
#X connect 38 6 31 0;
#X connect 38 7 34 0;
#X connect 38 8 35 0;
#X connect 38 9 36 0;
#X connect 39 0 22 0;
#X connect 40 0 17 0;
#X connect 40 1 18 0;
#X connect 40 2 19 0;
#X connect 40 3 24 0;
#X connect 40 4 20 0;
#X connect 40 5 39 0;
#X connect 40 6 21 0;
#X connect 40 7 43 0;
#X connect 40 8 41 0;
#X connect 40 9 42 0;
#X connect 40 10 44 0;
#X connect 41 0 22 0;
#X connect 42 0 22 0;
#X connect 43 0 22 0;
#X connect 44 0 22 0;
#X restore 1124 498 pd keyselectors;
#X obj 154 453 hradio 40 1 0 12 empty empty empty 0 -8 0 10 -262144
-1 -1 0;
#X text 155 435 I II IIIm III IV V VIm VI VIIm VIIb VII VIII, f 69
;
#X obj 153 531 hradio 40 1 0 12 empty empty empty 0 -8 0 10 -262144
-1 -1 0;
#X text 154 513 I II IIIm III IV V VIm VI VIIm VIIb VII VIII, f 69
;
#X obj 153 603 hradio 40 1 0 12 empty empty empty 0 -8 0 10 -262144
-1 -1 0;
#X text 154 585 I II IIIm III IV V VIm VI VIIm VIIb VII VIII, f 69
;
#X obj 621 28 random 3;
#X obj 621 53 + 2, f 8;
#X floatatom 698 31 5 0 0 0 - - -, f 5;
#X floatatom 698 53 5 0 0 0 - - -, f 5;
#X obj 650 -66 bng 37 250 50 0 empty empty empty 17 7 0 10 -262144
-1 -1;
#X obj 160 221 *;
#X obj 316 206 prepend set;
#X msg 388 157 I;
#X obj 621 1 metro 5;
#X floatatom 697 -7 5 0 0 0 - - -, f 5;
#X obj 752 398 * 32;
#X obj 740 906 writesf~ 2;
#N canvas 625 325 738 460 numerickeypad 0;
#X msg 193 177 1;
#X msg 226 205 2;
#X msg 258 178 3;
#X msg 291 206 4;
#X msg 321 177 5;
#X msg 353 205 6;
#X msg 389 177 7;
#X floatatom 193 247 5 0 0 0 - - -, f 5;
#X obj 196 74 key;
#X floatatom 239 112 5 0 0 0 - - -, f 5;
#X msg 433 206 8;
#X msg 454 178 9;
#X msg 485 206 10;
#X msg 515 178 11;
#X obj 198 143 select 49 50 51 52 53 54 55 56 57 48 39;
#X obj 122 330 outlet;
#X connect 0 0 7 0;
#X connect 1 0 7 0;
#X connect 2 0 7 0;
#X connect 3 0 7 0;
#X connect 4 0 7 0;
#X connect 5 0 7 0;
#X connect 6 0 7 0;
#X connect 7 0 15 0;
#X connect 8 0 9 0;
#X connect 8 0 14 0;
#X connect 10 0 7 0;
#X connect 11 0 7 0;
#X connect 12 0 7 0;
#X connect 13 0 7 0;
#X connect 14 0 0 0;
#X connect 14 1 1 0;
#X connect 14 2 2 0;
#X connect 14 3 3 0;
#X connect 14 4 4 0;
#X connect 14 5 5 0;
#X connect 14 6 6 0;
#X connect 14 7 10 0;
#X connect 14 8 11 0;
#X connect 14 9 12 0;
#X connect 14 10 13 0;
#X restore 147 -56 pd numerickeypad;
#X floatatom 51 221 5 0 0 0 - - -, f 5;
#X obj 604 -45 tgl 15 0 empty empty empty 17 7 0 10 -262144 -1 -1 0
1;
#N canvas 726 303 617 564 asdfkeys 0;
#X obj 86 163 keyname;
#X msg 163 237 1;
#X msg 196 265 2;
#X msg 227 239 3;
#X msg 290 237 5;
#X msg 323 265 6;
#X msg 346 237 7;
#X floatatom 163 296 5 0 0 0 - - -, f 5;
#X msg 261 270 4;
#X msg 372 268 8;
#X msg 397 235 9;
#X msg 428 267 10;
#X obj 230 318 * 5;
#X obj 150 199 select a s d f g h j k l ñ;
#X obj 161 333 outlet;
#X connect 0 1 13 0;
#X connect 1 0 7 0;
#X connect 2 0 7 0;
#X connect 3 0 7 0;
#X connect 4 0 7 0;
#X connect 5 0 7 0;
#X connect 6 0 7 0;
#X connect 7 0 12 0;
#X connect 7 0 14 0;
#X connect 8 0 7 0;
#X connect 9 0 7 0;
#X connect 10 0 7 0;
#X connect 11 0 7 0;
#X connect 13 0 1 0;
#X connect 13 1 2 0;
#X connect 13 2 3 0;
#X connect 13 3 8 0;
#X connect 13 4 4 0;
#X connect 13 5 5 0;
#X connect 13 6 6 0;
#X connect 13 7 9 0;
#X connect 13 8 10 0;
#X connect 13 9 11 0;
#X restore 218 31 pd asdfkeys;
#N canvas 968 192 617 564 quertykeys 0;
#X obj 86 163 keyname;
#X msg 163 237 1;
#X msg 196 265 2;
#X msg 227 239 3;
#X msg 290 237 5;
#X msg 323 265 6;
#X msg 346 237 7;
#X floatatom 163 296 5 0 0 0 - - -, f 5;
#X msg 261 270 4;
#X msg 372 268 8;
#X msg 397 235 9;
#X msg 428 267 10;
#X obj 150 199 select q w e r t y u i o p;
#X obj 163 368 outlet;
#X connect 0 1 12 0;
#X connect 1 0 7 0;
#X connect 2 0 7 0;
#X connect 3 0 7 0;
#X connect 4 0 7 0;
#X connect 5 0 7 0;
#X connect 6 0 7 0;
#X connect 7 0 13 0;
#X connect 8 0 7 0;
#X connect 9 0 7 0;
#X connect 10 0 7 0;
#X connect 11 0 7 0;
#X connect 12 0 1 0;
#X connect 12 1 2 0;
#X connect 12 2 3 0;
#X connect 12 3 8 0;
#X connect 12 4 4 0;
#X connect 12 5 5 0;
#X connect 12 6 6 0;
#X connect 12 7 9 0;
#X connect 12 8 10 0;
#X connect 12 9 11 0;
#X restore 171 3 pd quertykeys;
#X obj 163 -28 * 1.33333;
#X obj 204 57 * 0.75;
#X obj 684 698 *~ 0.2;
#X msg 748 850 open igua_jueves_1414.wav \, start;
#X obj 305 763 delwrite~ delayname_ 500;
#X obj 354 842 delread~ delayname_ 500;
#X connect 1 0 93 0;
#X connect 5 0 1 0;
#X connect 9 0 61 0;
#X connect 10 0 31 0;
#X connect 11 0 12 0;
#X connect 12 0 13 0;
#X connect 13 0 42 0;
#X connect 13 1 43 0;
#X connect 14 0 18 0;
#X connect 15 0 16 0;
#X connect 16 0 17 0;
#X connect 17 0 40 0;
#X connect 17 1 41 0;
#X connect 18 0 15 0;
#X connect 20 0 39 0;
#X connect 21 0 22 0;
#X connect 22 0 52 0;
#X connect 23 0 25 0;
#X connect 25 0 53 0;
#X connect 26 0 27 0;
#X connect 30 0 85 0;
#X connect 31 0 11 0;
#X connect 33 0 37 0;
#X connect 34 0 35 0;
#X connect 35 0 36 0;
#X connect 36 0 44 0;
#X connect 36 1 45 0;
#X connect 37 0 34 0;
#X connect 38 0 9 1;
#X connect 39 0 84 0;
#X connect 40 0 19 0;
#X connect 41 0 19 0;
#X connect 42 0 8 0;
#X connect 43 0 8 0;
#X connect 44 0 32 0;
#X connect 45 0 32 0;
#X connect 46 0 38 1;
#X connect 46 0 48 0;
#X connect 47 0 38 0;
#X connect 48 0 47 0;
#X connect 49 0 20 1;
#X connect 50 0 49 1;
#X connect 50 0 51 0;
#X connect 51 0 63 0;
#X connect 52 0 24 0;
#X connect 53 0 24 0;
#X connect 54 0 39 1;
#X connect 55 0 54 1;
#X connect 55 0 56 0;
#X connect 56 0 57 0;
#X connect 57 0 54 0;
#X connect 58 0 61 1;
#X connect 59 0 58 1;
#X connect 59 0 60 0;
#X connect 60 0 62 0;
#X connect 61 0 20 0;
#X connect 62 0 58 0;
#X connect 63 0 49 0;
#X connect 64 0 79 1;
#X connect 64 1 80 0;
#X connect 65 0 64 0;
#X connect 74 0 75 0;
#X connect 75 0 46 0;
#X connect 76 0 74 1;
#X connect 77 0 75 1;
#X connect 78 0 82 0;
#X connect 79 0 9 0;
#X connect 80 0 81 0;
#X connect 82 0 74 0;
#X connect 83 0 82 1;
#X connect 84 0 4 0;
#X connect 84 0 5 0;
#X connect 84 0 26 0;
#X connect 84 0 29 0;
#X connect 86 0 87 0;
#X connect 86 0 91 0;
#X connect 88 0 82 0;
#X connect 89 0 92 0;
#X connect 90 0 79 0;
#X connect 91 0 79 0;
#X connect 92 0 79 0;
#X connect 93 0 85 1;
#X connect 93 0 0 1;
#X connect 93 0 0 0;
#X connect 93 0 85 0;
#X connect 93 0 95 0;
#X connect 94 0 85 0;
#X connect 96 0 85 0;
#X connect 96 0 85 1;
#X connect 96 0 0 0;
#X connect 96 0 0 1;
#X connect 96 0 93 0;
