#N canvas 87 80 158 159 10;
#X obj 10 6 cnv 15 120 100 empty empty wav_recorder 20 12 0 14 -33289
-262144 0;
#X obj 17 35 bng 15 250 50 0 open-wav empty open_file_for_writing 0
-6 0 6 -262144 -1 -262144;
#X obj 66 43 bng 15 250 50 0 rec-wav empty START_RECORDING 0 -6 0 6
-258113 -1 -262144;
#X obj 22 71 bng 15 250 50 0 rec-wav-stop empty STOP_RECORDING 0 -6
0 6 -262144 -1 -262144;
#X obj 63 84 bng 20 250 50 0 empty flasher RECORDING 0 -6 0 10 -257985
-1 -262144;
#X obj 10 6 cnv 15 120 100 empty empty wav_recorder 20 12 0 14 -33289
-262144 0;
#X obj 17 37 bng 15 250 50 0 open-wav empty open_file_for_writing 0
-6 0 6 -262144 -1 -262144;
#X obj 67 49 bng 15 250 50 0 rec-wav empty START_RECORDING 0 -6 0 6
-258113 -1 -262144;
#X obj 16 75 bng 15 250 50 0 rec-wav-stop empty STOP_RECORDING 0 -6
0 6 -262144 -1 -262144;
#X obj 63 84 bng 20 250 50 0 empty flasher RECORDING 0 -6 0 10 -257985
-1 -262144;
#N canvas 392 261 574 424 recorder 0;
#X msg 24 98 start;
#X msg 71 96 stop;
#X obj 157 203 writesf~ 2;
#X obj 151 155 savepanel;
#X msg 149 131 bang;
#X msg 158 178 open \$1;
#X obj 131 106 r open-wav;
#X obj 35 56 r rec-wav;
#X obj 19 76 r rec-wav-stop;
#X obj 30 178 metro 500;
#X obj 23 204 s flasher;
#X msg 16 155 1;
#X msg 76 156 0;
#X obj 30 128 t b;
#X obj 73 130 t b;
#X text 25 367 2008 Justin Wierbonski;
#X obj 249 105 adc~;
#X obj 246 252 dac~;
#X obj 244 216 *~;
#X obj 290 177 dbtorms;
#X obj 291 150 r vol;
#X msg 144 39 \; pd dsp \$1;
#X obj 142 5 r onoff;
#X connect 0 0 2 0;
#X connect 0 0 13 0;
#X connect 1 0 2 0;
#X connect 1 0 14 0;
#X connect 3 0 5 0;
#X connect 4 0 3 0;
#X connect 5 0 2 0;
#X connect 6 0 4 0;
#X connect 7 0 0 0;
#X connect 8 0 1 0;
#X connect 9 0 10 0;
#X connect 11 0 9 0;
#X connect 12 0 9 0;
#X connect 13 0 11 0;
#X connect 14 0 12 0;
#X connect 16 0 2 0;
#X connect 16 0 18 0;
#X connect 16 1 2 1;
#X connect 16 1 18 0;
#X connect 18 0 17 0;
#X connect 18 0 17 1;
#X connect 19 0 18 1;
#X connect 20 0 19 0;
#X connect 22 0 21 0;
#X restore 12 122 pd recorder;
#X obj -9 8 vsl 15 128 0 100 0 0 vol empty monitor_level 0 -8 0 10
-192059 -1 -1 0 1;
#X obj 88 122 tgl 15 0 onoff empty on_off 0 -6 0 10 -262144 -1 -1 0
1;
